<?xml version="1.0" encoding="UTF-8"?>
<svg id="Layer_1" data-name="Layer 1" xmlns="http://www.w3.org/2000/svg" viewBox="0 0 80 80">
  <defs>
    <style>
      .cls-1 {
        fill: #fff;
      }

      .cls-2 {
        fill: red;
      }
    </style>
  </defs>
  <rect class="cls-2" x=".07" y=".07" width="79.86" height="79.86" rx="15.36" ry="15.36"/>
  <g>
    <path class="cls-1" d="M57.78,15.81c-3.47,0-6.29,2.81-6.29,6.29v35.85c0,3.47,2.81,6.29,6.29,6.29s6.29-2.81,6.29-6.29V22.1c0-3.47-2.81-6.29-6.29-6.29Z"/>
    <path class="cls-1" d="M27.79,19.1c-1.62-3.07-5.43-4.24-8.5-2.62-3.07,1.62-4.24,5.43-2.62,8.5l19.01,35.93c1.62,3.07,5.43,4.24,8.5,2.62,3.07-1.62,4.24-5.43,2.62-8.5L27.79,19.1Z"/>
    <circle class="cls-1" cx="22.36" cy="57.82" r="6.43"/>
  </g>
</svg>